<?xml version="1.0" standalone="no"?>
<!DOCTYPE svg PUBLIC "-//W3C//DTD SVG 20010904//EN"
 "http://www.w3.org/TR/2001/REC-SVG-20010904/DTD/svg10.dtd">
<svg version="1.0" xmlns="http://www.w3.org/2000/svg"
 width="256.000000pt" height="256.000000pt" viewBox="0 0 256.000000 256.000000"
 preserveAspectRatio="xMidYMid meet">

<g transform="translate(0.000000,256.000000) scale(0.100000,-0.100000)"
fill="#000000" stroke="none">
<path d="M1035 2505 c-83 -15 -194 -56 -238 -87 -18 -12 -99 -85 -180 -163
-160 -152 -191 -197 -218 -320 -20 -89 -17 -319 5 -445 20 -110 45 -173 103
-253 36 -52 36 -53 1 -71 -19 -10 -23 -20 -23 -63 0 -28 -3 -55 -7 -59 -24
-23 7 -113 60 -174 l30 -35 45 24 45 24 36 -21 c47 -28 61 -28 80 0 24 34 20
48 -14 48 -40 0 -38 12 8 48 53 42 97 62 140 65 32 2 37 -1 35 -18 -1 -11 2
-34 8 -52 7 -23 7 -37 -2 -51 -10 -17 -9 -33 9 -95 19 -63 23 -117 32 -351 10
-289 17 -333 58 -355 70 -37 76 -3 70 381 -3 175 -1 318 4 318 4 0 8 -84 9
-187 0 -259 13 -504 28 -531 10 -18 19 -22 44 -20 55 5 60 36 65 416 2 182 8
332 13 332 5 0 8 -153 6 -352 -2 -386 0 -402 51 -396 22 2 29 11 39 48 21 70
34 276 32 504 -2 185 0 210 15 218 27 15 35 0 19 -34 -14 -27 -16 -83 -17
-374 -1 -188 2 -345 6 -349 4 -4 27 -4 52 -1 36 6 46 12 55 34 10 26 23 189
37 461 5 108 11 145 29 186 25 55 49 187 40 215 -5 14 4 22 42 36 60 23 112
24 146 1 31 -20 34 -42 11 -68 -22 -24 -11 -66 20 -80 18 -9 32 -7 59 6 53 25
122 98 135 143 16 53 15 107 -2 121 -18 15 -15 40 29 226 82 346 83 482 6 649
-44 94 -101 177 -176 252 -56 57 -161 137 -216 165 l-37 18 -1 -52 c0 -30 -8
-68 -19 -89 -21 -40 -31 -40 -33 1 -1 25 -2 25 -9 -4 -4 -16 -8 -46 -9 -67 0
-20 -7 -39 -13 -42 -10 -3 -8 -9 5 -19 9 -8 17 -25 18 -38 l0 -24 11 23 c6 12
20 22 30 22 15 0 19 -6 16 -27 -3 -27 -6 -28 -58 -29 -30 -1 -67 -4 -82 -9
-19 -5 -28 -3 -28 5 0 6 -8 9 -18 6 -14 -5 -18 0 -20 26 -2 26 0 30 10 20 14
-14 48 -16 48 -4 0 5 -11 19 -25 32 -27 25 -33 55 -12 62 20 8 37 -2 37 -22 0
-10 5 -22 10 -25 6 -4 10 14 10 46 0 36 5 55 16 63 14 11 12 16 -14 44 l-30
32 24 0 c13 0 24 4 24 10 0 5 -7 7 -15 4 -10 -4 -15 0 -15 12 0 15 -2 16 -9 5
-7 -11 -10 -9 -13 10 -4 29 13 69 29 69 20 0 43 -12 38 -20 -3 -5 4 -6 15 -3
11 3 20 7 20 9 0 9 -110 36 -124 31 -14 -6 -15 -10 -4 -29 15 -28 11 -60 -8
-71 -8 -5 -11 -14 -8 -20 5 -8 2 -7 -7 1 -12 11 -12 14 0 22 8 4 16 19 18 32
2 18 1 20 -7 8 -9 -13 -11 -13 -19 0 -13 21 -58 18 -77 -6 -8 -10 -13 -14 -10
-7 4 6 2 23 -4 38 -10 26 -9 27 15 22 19 -3 25 -1 21 9 -3 7 0 15 7 18 27 11
-294 3 -358 -9z m222 -10 c2 -6 -6 -16 -17 -23 -11 -7 -20 -9 -19 -5 3 20 -2
27 -11 13 -8 -12 -10 -10 -10 8 0 19 5 23 27 20 14 -2 28 -8 30 -13z m60 -3
c-19 -20 -23 -37 -7 -27 6 3 10 -4 9 -17 0 -13 -3 -17 -6 -10 -2 6 -11 12 -18
12 -13 0 -27 45 -17 55 3 3 17 5 30 5 24 0 24 -1 9 -18z m-57 -107 c0 -14 -8
-25 -20 -28 -23 -6 -27 -27 -5 -27 8 0 15 -4 15 -9 0 -4 -11 -6 -25 -3 -29 5
-30 0 -13 -63 11 -42 11 -47 -11 -68 -13 -12 -21 -17 -17 -10 3 6 2 14 -4 18
-6 4 -10 -7 -11 -27 0 -32 -1 -32 -10 -8 -6 14 -12 33 -14 44 -3 10 -9 24 -15
31 -8 9 -8 15 0 20 6 3 7 12 3 18 -3 7 3 4 15 -7 20 -17 22 -17 28 -2 9 23 -4
49 -21 42 -8 -3 -15 -1 -15 4 0 6 7 10 15 10 18 0 19 4 3 30 -10 15 -10 22 -1
31 9 9 13 6 19 -15 8 -33 32 -35 29 -1 -2 14 1 27 6 31 5 3 9 15 9 26 0 20 1
21 20 3 11 -10 20 -28 20 -40z m240 -47 c0 -5 -7 -3 -15 6 -8 8 -15 18 -15 22
0 3 7 1 15 -6 8 -7 15 -17 15 -22z m314 -19 c2 -8 6 -21 9 -29 4 -8 6 -27 4
-42 -2 -31 16 -39 21 -9 2 11 10 25 19 33 14 11 16 10 11 -14 -3 -16 -2 -28 2
-28 15 0 20 -48 9 -80 -9 -23 -14 -28 -20 -18 -5 7 -9 9 -9 3 0 -5 -7 1 -15
15 l-14 25 -1 -27 c0 -16 -4 -28 -9 -28 -5 0 -23 -3 -40 -6 -28 -6 -31 -4 -31
17 0 16 3 20 8 11 6 -9 13 0 22 28 10 31 11 46 2 65 -14 31 -16 57 -2 35 7
-12 12 -12 22 -2 6 6 10 12 8 13 -3 0 -13 2 -23 4 -10 2 -23 -5 -30 -16 -16
-26 -27 -24 -27 7 0 14 12 39 27 55 23 24 30 26 41 15 7 -7 15 -19 16 -27z
m-354 21 c0 -5 -4 -10 -10 -10 -5 0 -10 5 -10 10 0 6 5 10 10 10 6 0 10 -4 10
-10z m-732 -46 c-3 -14 -5 -12 -10 9 -3 19 -2 25 4 19 6 -6 8 -18 6 -28z m637
27 c3 -5 1 -12 -5 -16 -5 -3 -10 1 -10 9 0 18 6 21 15 7z m-345 -78 c0 -4 -9
-19 -19 -32 l-18 -24 2 39 c1 22 3 43 4 47 1 10 31 -18 31 -30z m450 17 c0 -5
-4 -10 -10 -10 -5 0 -10 5 -10 10 0 6 5 10 10 10 6 0 10 -4 10 -10z m-779
-105 c5 15 8 7 8 -26 1 -50 -22 -76 -34 -38 -4 10 -11 19 -16 19 -15 0 -5 50
12 60 10 7 15 4 18 -13 3 -21 4 -21 12 -2z m741 -10 c3 -24 0 -35 -9 -35 -13
0 -19 51 -6 63 10 11 11 9 15 -28z m-392 -46 c0 -6 -4 -8 -9 -4 -5 3 -12 1
-16 -5 -3 -6 0 -13 8 -16 11 -4 14 -24 12 -87 -1 -45 1 -102 5 -127 l7 -45 12
30 c10 23 14 26 21 15 8 -13 10 -13 10 0 0 9 -5 21 -12 28 -7 7 -8 12 -2 12
14 0 16 133 2 142 -8 4 -9 13 -1 30 10 23 10 23 27 -10 9 -17 21 -32 26 -32
13 0 2 -50 -16 -70 -13 -16 -9 -60 6 -60 5 0 16 -3 25 -6 14 -6 16 -1 13 22
-2 16 2 29 7 29 6 0 10 -6 10 -12 0 -7 7 -21 15 -30 17 -20 17 -76 0 -81 -5
-2 -10 -8 -10 -14 0 -5 9 -6 21 -3 14 5 20 3 18 -7 -1 -7 -1 -28 0 -45 1 -40
21 -44 21 -5 0 16 3 32 8 36 4 4 7 18 7 29 0 12 5 22 10 22 6 0 9 -15 8 -33
-2 -21 3 -35 12 -38 13 -5 13 -8 0 -21 -8 -8 -15 -19 -15 -24 0 -13 18 -11 23
4 3 6 6 2 6 -10 1 -13 20 -43 44 -67 29 -30 38 -47 31 -53 -15 -10 -27 -113
-14 -113 6 0 10 -11 10 -25 0 -14 5 -25 12 -25 9 0 9 -3 0 -12 -8 -8 -15 -8
-29 3 -16 12 -17 12 -6 -2 10 -12 9 -21 -2 -42 -8 -15 -12 -35 -9 -45 5 -16 5
-16 -6 1 -6 9 -15 17 -20 17 -5 0 -7 -8 -3 -17 3 -10 3 -15 -2 -11 -4 4 -8 20
-9 34 -1 15 -6 29 -13 31 -7 3 -10 -4 -7 -19 5 -20 4 -21 -6 -5 -6 9 -8 22 -5
27 13 21 -7 28 -26 9 -28 -28 -39 -16 -39 42 0 48 14 67 23 32 3 -11 5 -7 6
10 0 15 -4 27 -10 27 -7 0 -8 11 -4 30 7 33 7 34 -29 20 -18 -7 -26 -6 -26 2
0 6 -7 16 -15 22 -8 6 -16 26 -17 43 -1 22 -6 29 -12 23 -18 -18 -57 -11 -63
10 -7 25 -23 26 -23 1 0 -20 -25 -35 -41 -25 -12 7 -12 41 1 64 7 13 4 24 -11
44 -11 14 -17 30 -14 36 8 13 -58 13 -71 0 -8 -8 -15 -6 -23 4 -7 8 -19 12
-26 10 -17 -7 -30 83 -23 156 6 55 1 65 -19 49 -19 -16 -18 59 1 97 8 15 13
31 10 36 -3 4 0 8 5 8 10 0 16 -53 12 -89 -5 -33 18 3 24 39 5 28 12 40 23 40
15 0 15 -2 2 -10 -12 -7 -13 -13 -4 -28 6 -9 15 -32 19 -50 8 -37 25 -43 25
-8 0 28 30 45 31 18 0 -14 2 -14 8 2 7 18 8 18 14 2 4 -10 7 -36 7 -59 0 -30
3 -38 11 -30 8 8 10 43 7 102 l-4 90 23 -25 c13 -14 23 -30 23 -35z m110 14
c0 -5 -7 -17 -15 -27 -15 -20 -15 -20 -15 0 0 12 3 24 7 27 9 9 23 9 23 0z
m-490 -46 c0 -5 -4 -6 -9 -3 -5 3 -7 -24 -5 -62 3 -58 0 -69 -16 -80 -16 -10
-21 -9 -30 9 -6 11 -9 25 -7 32 3 7 9 1 15 -13 9 -20 11 -10 11 57 1 56 5 83
14 86 12 4 27 -10 27 -26z m-61 -34 c0 -16 -3 -23 -5 -16 -7 16 -34 5 -34 -13
0 -8 4 -14 8 -14 13 0 11 -38 -2 -43 -9 -4 -13 9 -15 44 -1 43 1 49 19 49 11
0 20 5 20 10 0 6 2 10 5 10 3 0 5 -12 4 -27z m88 5 c-3 -8 -6 -5 -6 6 -1 11 2
17 5 13 3 -3 4 -12 1 -19z m74 -3 c1 6 4 -6 8 -25 5 -26 11 -34 24 -32 10 2
17 -3 17 -13 0 -8 -7 -15 -15 -15 -20 0 -19 -16 0 -24 23 -8 17 -125 -7 -140
-23 -14 -29 -5 -34 51 -2 26 -6 72 -9 101 -3 31 -1 52 5 52 6 0 10 5 10 10 0
6 -7 10 -15 10 -8 0 -15 6 -15 13 0 21 13 29 22 15 4 -7 8 -8 9 -3z m-205
-111 c24 6 25 5 19 -24 -4 -18 -2 -36 4 -44 14 -17 4 -44 -17 -48 -27 -6 -42
46 -40 136 1 63 3 69 5 28 4 -52 5 -54 29 -48z m159 78 c11 -7 11 -19 -3 -172
-8 -97 -19 -97 -21 0 0 36 -4 91 -7 123 -7 57 2 70 31 49z m1175 -34 c0 -16
-3 -19 -11 -11 -6 6 -8 16 -5 22 11 17 16 13 16 -11z m-269 -40 c2 -69 4 -73
22 -70 15 3 16 -5 11 -80 -4 -55 -12 -89 -23 -102 -9 -11 -10 -16 -3 -12 6 4
12 2 12 -4 0 -6 -10 -8 -25 -4 -15 4 -25 2 -25 -5 0 -6 4 -11 9 -11 5 0 7 -8
4 -19 -3 -12 -11 -17 -23 -14 -14 4 -17 0 -13 -20 3 -16 -1 -26 -10 -30 -12
-4 -17 4 -22 34 -6 34 -3 45 20 75 19 25 30 32 35 24 5 -8 10 -8 14 -2 3 5 0
12 -8 15 -20 8 -11 98 12 116 15 12 15 13 0 8 -14 -5 -17 3 -17 64 0 54 3 69
14 69 10 0 15 -11 16 -32z m166 -11 c2 -27 -3 -41 -16 -49 -11 -6 -17 -18 -14
-26 5 -11 7 -11 14 0 7 10 9 10 9 1 0 -7 7 -13 15 -13 13 0 13 -2 3 -14 -9
-10 -15 -11 -20 -2 -7 10 -12 -22 -11 -61 1 -25 -16 -12 -22 17 -4 17 -11 28
-16 24 -5 -3 -9 18 -8 48 0 29 3 47 6 41 2 -7 14 -13 24 -13 18 0 19 5 15 46
-4 34 -3 45 7 41 6 -2 13 -20 14 -40z m33 10 c0 -18 -2 -19 -10 -7 -13 20 -13
43 0 35 6 -3 10 -16 10 -28z m-265 -9 c-4 -18 -13 -41 -20 -51 -11 -16 -13
-16 -18 -2 -7 17 1 45 13 45 5 0 6 9 3 20 -4 14 0 20 12 20 14 0 15 -6 10 -32z
m-1122 -14 c-2 -16 -4 -45 -5 -64 -2 -19 -7 -35 -13 -35 -13 0 -18 58 -10 102
8 42 31 39 28 -3z m1454 -1 c-3 -10 -5 -4 -5 12 0 17 2 24 5 18 2 -7 2 -21 0
-30z m-1401 -88 c-4 -18 -13 -38 -21 -45 -11 -9 -15 -5 -19 22 -10 60 2 113
17 76 3 -7 6 -2 7 12 l2 25 10 -28 c5 -15 7 -43 4 -62z m134 40 c0 -25 -4 -45
-10 -45 -11 0 -13 33 -4 68 10 34 14 27 14 -23z m958 -20 c2 -51 -7 -58 -25
-18 -11 22 -10 28 4 38 10 7 13 17 8 25 -5 8 -4 11 2 7 5 -3 10 -27 11 -52z
m332 31 c0 -2 -7 -9 -15 -16 -12 -10 -15 -10 -15 4 0 9 7 16 15 16 8 0 15 -2
15 -4z m140 -48 c-1 -40 -2 -42 -16 -23 -8 11 -11 21 -5 23 5 2 7 12 4 22 -3
11 0 20 6 20 6 0 11 -18 11 -42z m60 5 c0 -7 7 -16 15 -19 10 -4 15 -20 15
-53 -1 -42 -2 -44 -15 -27 -13 17 -14 12 -17 -44 -3 -59 -4 -62 -35 -75 l-33
-14 0 34 c0 24 4 33 13 29 25 -9 37 58 25 145 0 3 0 19 1 35 1 24 3 27 16 16
8 -7 15 -19 15 -27z m-143 -5 c-3 -8 -6 -5 -6 6 -1 11 2 17 5 13 3 -3 4 -12 1
-19z m-67 -20 c0 -5 -4 -8 -10 -8 -5 0 -10 10 -10 23 0 18 2 19 10 7 5 -8 10
-18 10 -22z m-1105 -48 c3 -5 1 -10 -4 -10 -6 0 -11 5 -11 10 0 6 2 10 4 10 3
0 8 -4 11 -10z m-129 -129 c54 -27 142 -77 194 -111 89 -59 285 -160 310 -160
30 0 -3 -26 -61 -48 -89 -34 -198 -34 -341 1 -114 28 -175 59 -196 98 -39 76
-67 240 -45 262 14 14 43 5 139 -42z m1351 -33 c-7 -103 -48 -202 -96 -233
-39 -26 -212 -70 -321 -81 -55 -5 -77 -2 -144 20 -85 29 -115 30 -41 1 37 -14
45 -21 43 -39 -2 -11 -7 -24 -13 -28 -6 -5 -5 -12 3 -20 17 -17 15 -39 -3 -32
-11 5 -15 -1 -15 -20 l0 -27 -22 21 c-21 19 -21 20 -3 34 18 13 18 14 -3 36
-24 26 -27 36 -12 45 16 10 12 28 -5 21 -8 -3 -14 -2 -14 2 1 4 0 9 -1 12 -13
34 -5 42 103 94 62 29 154 83 205 120 134 95 237 144 311 145 l34 1 -6 -72z
m-497 -7 c0 -19 -6 -30 -18 -33 -18 -5 -49 19 -38 29 5 5 44 28 54 32 1 1 2
-12 2 -28z m-80 -33 c0 -35 -2 -39 -15 -28 -8 7 -15 28 -15 46 0 26 4 32 15
28 10 -4 15 -20 15 -46z m-55 32 c3 -5 1 -10 -4 -10 -6 0 -11 5 -11 10 0 6 2
10 4 10 3 0 8 -4 11 -10z m-255 -9 c0 -6 -4 -13 -10 -16 -5 -3 -10 1 -10 9 0
9 5 16 10 16 6 0 10 -4 10 -9z m247 -53 c-3 -7 -5 -2 -5 12 0 14 2 19 5 13 2
-7 2 -19 0 -25z m93 6 c0 -8 -4 -12 -10 -9 -5 3 -10 13 -10 21 0 8 5 12 10 9
6 -3 10 -13 10 -21z m-43 -44 c-2 -24 -17 -15 -17 11 0 11 4 18 9 14 6 -3 9
-14 8 -25z m-47 -90 c0 -5 -5 -10 -11 -10 -5 0 -7 5 -4 10 3 6 8 10 11 10 2 0
4 -4 4 -10z m163 -131 c7 0 3 -4 -8 -8 -22 -9 -35 -5 -35 11 0 5 7 7 16 4 9
-3 21 -6 27 -7z m-293 -61 c-1 -49 -6 -72 -25 -103 -25 -41 -33 -85 -15 -85 6
0 9 -10 9 -22 -1 -13 -3 -16 -5 -8 -3 8 -17 21 -31 28 -20 9 -24 9 -15 0 7 -7
12 -25 12 -41 0 -24 3 -28 20 -24 23 6 23 6 10 -29 -6 -15 -13 -24 -17 -20 -3
3 -12 -3 -20 -14 -11 -15 -11 -24 -3 -41 10 -18 9 -20 -7 -17 -19 3 -26 38
-10 49 14 10 9 122 -9 202 -4 18 -1 33 9 45 9 9 25 38 36 65 41 94 61 99 61
15z m68 39 c6 -7 28 -45 48 -86 l38 -72 -24 -45 c-29 -52 -40 -56 -40 -14 0
17 -11 48 -25 70 -20 31 -25 53 -25 100 0 59 8 72 28 47z m-141 -29 c-3 -7 -5
-2 -5 12 0 14 2 19 5 13 2 -7 2 -19 0 -25z m483 -3 c0 -8 -7 -15 -15 -15 -9 0
-12 6 -9 15 4 8 10 15 15 15 5 0 9 -7 9 -15z m-510 -26 c9 -16 8 -24 -5 -39
-18 -20 -27 -78 -13 -86 12 -8 10 -21 -8 -38 -8 -9 -11 -16 -5 -16 6 0 11 -5
11 -11 0 -5 -4 -7 -10 -4 -6 4 -10 -5 -10 -19 0 -16 6 -26 15 -26 10 0 15 -10
14 -32 0 -33 0 -33 -11 -8 l-11 25 -7 -35 c-4 -19 -8 -26 -9 -14 -3 53 -50 31
-52 -24 -2 -30 -3 -32 -6 -9 -6 36 -19 35 -26 -3 -9 -40 -28 -37 -49 7 -14 29
-15 40 -6 51 7 8 13 33 13 56 0 22 4 47 8 54 5 7 4 12 -2 12 -6 0 -11 14 -11
30 0 17 4 30 9 30 5 0 8 -8 7 -17 -1 -22 45 -25 52 -4 3 8 0 11 -5 8 -5 -3 -9
3 -9 14 0 40 25 17 32 -28 3 -27 9 -52 12 -57 9 -16 22 19 17 45 -4 17 0 30
10 39 12 10 13 16 4 26 -9 11 -8 14 0 14 7 0 10 4 7 9 -3 5 1 14 9 21 8 7 15
21 15 31 0 25 7 24 20 -2z m660 -51 c0 -6 -7 -5 -15 2 -8 7 -15 17 -15 22 0 6
7 5 15 -2 8 -7 15 -17 15 -22z m-330 -32 c0 -14 -4 -27 -10 -31 -5 -3 -6 -13
-3 -22 4 -11 3 -14 -5 -9 -7 4 -13 19 -13 34 -1 24 -3 23 -12 -10 -15 -53 -27
-47 -27 12 l0 50 35 0 c30 0 35 -3 35 -24z m270 -16 c0 -11 -2 -20 -4 -20 -2
0 -6 9 -9 20 -3 11 -1 20 4 20 5 0 9 -9 9 -20z m-115 -30 c3 -6 -1 -7 -9 -4
-18 7 -21 14 -7 14 6 0 13 -4 16 -10z m-1025 -40 c0 -5 -5 -10 -11 -10 -5 0
-7 5 -4 10 3 6 8 10 11 10 2 0 4 -4 4 -10z m770 -24 c0 -2 -8 -10 -17 -17 -16
-13 -17 -12 -4 4 13 16 21 21 21 13z m-45 -38 c11 -1 23 -7 27 -13 12 -16 9
-47 -3 -40 -6 4 -8 13 -5 20 2 7 -2 16 -11 19 -12 5 -14 1 -9 -17 6 -27 -3
-67 -15 -67 -5 0 -9 7 -9 15 0 8 -4 15 -10 15 -5 0 -10 -7 -10 -15 0 -8 -4
-15 -10 -15 -15 0 -12 40 5 56 8 9 15 27 15 42 0 15 3 22 8 15 4 -6 16 -13 27
-15z m-725 -37 c0 -11 -3 -22 -7 -24 -5 -3 -8 6 -8 19 0 13 3 24 8 24 4 0 7
-9 7 -19z m110 -21 c0 -5 -2 -10 -4 -10 -3 0 -8 5 -11 10 -3 6 -1 10 4 10 6 0
11 -4 11 -10z m610 -122 c-1 -41 -7 -86 -15 -103 -13 -29 -14 -26 -13 48 1 91
7 127 19 127 5 0 9 -33 9 -72z m50 18 c0 -3 -4 -8 -10 -11 -5 -3 -10 -1 -10 4
0 6 5 11 10 11 6 0 10 -2 10 -4z m-319 -56 c5 0 9 7 9 15 0 8 7 15 15 15 17 0
21 -36 5 -42 -15 -5 -21 -44 -21 -132 1 -44 -2 -76 -6 -72 -5 4 -8 26 -9 49 0
23 -3 78 -7 122 -3 44 -4 72 -1 63 3 -10 10 -18 15 -18z m199 -12 c0 -24 -4
-38 -8 -32 -12 18 -37 22 -56 8 -24 -17 -56 -2 -56 27 0 17 3 18 20 9 16 -9
19 -8 13 6 -5 13 -3 15 7 9 24 -15 58 -14 64 1 10 26 16 15 16 -28z m118 7
c-3 -3 -9 2 -12 12 -6 14 -5 15 5 6 7 -7 10 -15 7 -18z m-148 -277 c0 -16 -3
-19 -11 -11 -6 6 -8 16 -5 22 11 17 16 13 16 -11z m-70 -14 c0 -8 -4 -12 -10
-9 -5 3 -10 10 -10 16 0 5 5 9 10 9 6 0 10 -7 10 -16z"/>
<path d="M1202 2230 c0 -14 2 -19 5 -12 2 6 2 18 0 25 -3 6 -5 1 -5 -13z"/>
<path d="M991 1933 c7 -10 15 -20 16 -22 2 -2 3 3 3 11 0 9 -7 19 -16 22 -15
6 -15 4 -3 -11z"/>
<path d="M1150 1820 c0 -5 5 -10 10 -10 6 0 10 5 10 10 0 6 -4 10 -10 10 -5 0
-10 -4 -10 -10z"/>
<path d="M1005 1020 c-3 -5 -1 -10 4 -10 6 0 11 5 11 10 0 6 -2 10 -4 10 -3 0
-8 -4 -11 -10z"/>
<path d="M1010 961 c0 -6 5 -13 10 -16 6 -3 10 1 10 9 0 9 -4 16 -10 16 -5 0
-10 -4 -10 -9z"/>
<path d="M1078 950 c-7 -24 -3 -38 8 -28 3 4 4 17 2 30 l-3 23 -7 -25z"/>
<path d="M1000 899 c0 -5 5 -7 10 -4 6 3 10 8 10 11 0 2 -4 4 -10 4 -5 0 -10
-5 -10 -11z"/>
<path d="M1420 2506 c0 -9 30 -14 35 -6 4 6 -3 10 -14 10 -12 0 -21 -2 -21 -4z"/>
</g>
</svg>
